# xmcd
#
# Track frame offsets:
#       150
#       10576
#       21425
#       36344
#       50628
#       64858
#       78317
#       90895
#       103811
#       115808
#       129096
#       140651
#       154482
#       167785
#       180187
#       194542
#       206352
#       218475
#       233053
#       246195
#       257642
#       269963
#
# Disc length: 3748 seconds
#
# Revision: 1
# Processed by: cddbd v1.5.2PL0 Copyright (c) Steve Scherf et al.
# Submitted via: FreeDbEdit v0.1
#
DISCID=320ea216
DTITLE=Sticks McGhee - Volume 1, 1947-1951
DYEAR=1997
DGENRE=R&B
TTITLE0=Drinkin' Wine Spo-Dee-O-Dee
TTITLE1=Baby, Baby Blues
TTITLE2=Drinkin' Wine Spo-Dee-O-Dee [#]
TTITLE3=Tall Pretty Woman (Blues)
TTITLE4=Lonesome Road Blues
TTITLE5=Blues Mixture (I'd Rather Drink Muddy Water)
TTITLE6=I'll Always Remember
TTITLE7=Blue and Brokenhearted
TTITLE8=My Baby's Comin' Home
TTITLE9=Drank Up All the Wine Last Night
TTITLE10=Venus Blues
TTITLE11=Southern Menu
TTITLE12=Let's Do It
TTITLE13=She's Gone
TTITLE14=House Warmin' Boogie
TTITLE15=Blue Barrelhouse [instr.]
TTITLE16=One Monkey Don't Stop the Show
TTITLE17=Tennessee Waltz Blues
TTITLE18=You Gotta Have Something on the Ball
TTITLE19=Oh What a Face
TTITLE20=Wee Wee Hours Pt.1
TTITLE21=Wee Wee Hours Pt.2 [instr.]
EXTD=RST Records (Austria) 91627-2
EXTT0=
EXTT1=
EXTT2=
EXTT3=
EXTT4=
EXTT5=
EXTT6=
EXTT7=
EXTT8=
EXTT9=
EXTT10=
EXTT11=
EXTT12=
EXTT13=
EXTT14=
EXTT15=
EXTT16=
EXTT17=
EXTT18=
EXTT19=
EXTT20=
EXTT21=
PLAYORDER=
